<?xml version="1.0" ?><!DOCTYPE svg  PUBLIC '-//W3C//DTD SVG 1.1//EN'  'http://www.w3.org/Graphics/SVG/1.1/DTD/svg11.dtd'><svg enable-background="new 0 0 512 512" height="512px" id="Layer_1" version="1.1" viewBox="0 0 512 512" width="512px" xml:space="preserve" xmlns="http://www.w3.org/2000/svg" xmlns:xlink="http://www.w3.org/1999/xlink"><g><path clip-rule="evenodd" d="M66.836,110.386h378.631v291.233H66.836V110.386z M271.87,150.605   c-16.932,17.847-30.241,84.983-34.167,114.624c-6.352-6.048-13.61-20.868-17.547-29.035c-4.832-9.378-9.977-19.961-15.12-29.333   c-4.229-8.167-9.977-19.961-13.914-21.777c-7.247-3.027-35.375-1.21-43.841,6.654c-3.333,33.873-5.446,135.487,9.373,155.442   c15.121,3.632,34.782-2.108,42.04-6.346c0.906-15.134-1.52-31.144-3.031-45.965c10.893,19.351,29.94,44.441,36.595,52.019   c6.956,0.897,45.362-0.605,48.683-4.843c5.446-23.588,2.729-65.628,6.655-106.457c6.352,8.772,27.522,103.43,41.436,127.018   c9.977-2.108,32.054-6.346,38.405-8.162c-4.228-13.004-41.123-179.943-53.526-200.812   C299.997,149.999,285.783,148.491,271.87,150.605L271.87,150.605z M512,486.596V25.706C512,11.491,500.503,0,486.591,0H25.701   C11.486,0,0,11.491,0,25.706v460.891C0,500.519,11.486,512,25.701,512h460.89C500.503,512,512,500.519,512,486.596L512,486.596z" fill="#8fc563" fill-rule="evenodd"/></g></svg>